<svg width="321" height="61" viewBox="0 0 321 61" fill="none" xmlns="http://www.w3.org/2000/svg">
<path d="M54.64 20.04H44.64C42.96 13.48 38.72 8.68 30.4 8.68C18.16 8.68 13.04 19.48 13.04 30.44C13.04 41.4 18.16 52.2 30.4 52.2C39.28 52.2 44.16 45.56 44.96 37.24H54.72C53.92 50.92 44.24 60.36 30.4 60.36C13.28 60.36 3.04 46.76 3.04 30.44C3.04 14.12 13.28 0.52 30.4 0.52C43.28 0.599998 53.44 7.72 54.64 20.04ZM83.4144 11.72L74.7744 36.28H92.2144L83.6544 11.72H83.4144ZM56.3744 59L78.2944 1.88H88.9344L110.934 59H100.214L94.8544 43.88H72.0544L66.6944 59H56.3744ZM125.574 10.04V27.88H141.974C148.294 27.88 151.734 24.76 151.734 18.76C151.734 11.48 147.014 10.04 141.814 10.04H125.574ZM115.574 59V1.88H142.854C155.334 1.88 161.734 7.64 161.734 17.32C161.734 28.28 154.134 31.08 152.294 31.72V31.88C155.734 32.36 160.774 34.92 160.774 43.96C160.774 50.6 161.734 56.68 163.894 59H153.174C151.654 56.52 151.654 53.4 151.654 50.6C151.654 40.12 149.494 35.48 140.294 35.48H125.574V59H115.574ZM171.102 59V1.88H212.222V10.52H181.102V25.48H209.902V33.64H181.102V50.36H212.782V59H171.102ZM220.693 59V1.88H261.813V10.52H230.693V25.48H259.493V33.64H230.693V50.36H262.373V59H220.693ZM280.283 10.04V27.88H296.683C303.003 27.88 306.443 24.76 306.443 18.76C306.443 11.48 301.723 10.04 296.523 10.04H280.283ZM270.283 59V1.88H297.563C310.043 1.88 316.443 7.64 316.443 17.32C316.443 28.28 308.843 31.08 307.003 31.72V31.88C310.443 32.36 315.483 34.92 315.483 43.96C315.483 50.6 316.443 56.68 318.603 59H307.883C306.363 56.52 306.363 53.4 306.363 50.6C306.363 40.12 304.203 35.48 295.003 35.48H280.283V59H270.283Z" fill="white"/>
</svg>
