<svg width="500" height="61" viewBox="0 0 500 61" fill="none" xmlns="http://www.w3.org/2000/svg">
<path d="M54.64 20.04H44.64C42.96 13.48 38.72 8.68 30.4 8.68C18.16 8.68 13.04 19.48 13.04 30.44C13.04 41.4 18.16 52.2 30.4 52.2C39.28 52.2 44.16 45.56 44.96 37.24H54.72C53.92 50.92 44.24 60.36 30.4 60.36C13.28 60.36 3.04 46.76 3.04 30.44C3.04 14.12 13.28 0.52 30.4 0.52C43.28 0.599998 53.44 7.72 54.64 20.04ZM87.3344 0.52C104.454 0.52 114.694 14.12 114.694 30.44C114.694 46.76 104.454 60.36 87.3344 60.36C70.2144 60.36 59.9744 46.76 59.9744 30.44C59.9744 14.12 70.2144 0.52 87.3344 0.52ZM87.3344 8.68C75.0944 8.68 69.9744 19.48 69.9744 30.44C69.9744 41.4 75.0944 52.2 87.3344 52.2C99.5744 52.2 104.694 41.4 104.694 30.44C104.694 19.48 99.5744 8.68 87.3344 8.68ZM122.596 59V1.88H133.156L159.236 43.96H159.396V1.88H168.916V59H158.356L132.356 17H132.116V59H122.596ZM174.49 10.52V1.88H220.73V10.52H202.57V59H192.57V10.52H174.49ZM239.608 11.72L230.968 36.28H248.408L239.848 11.72H239.608ZM212.568 59L234.488 1.88H245.128L267.128 59H256.408L251.048 43.88H228.248L222.888 59H212.568ZM320.328 20.04H310.328C308.648 13.48 304.408 8.68 296.088 8.68C283.848 8.68 278.728 19.48 278.728 30.44C278.728 41.4 283.848 52.2 296.088 52.2C304.968 52.2 309.848 45.56 310.648 37.24H320.408C319.608 50.92 309.928 60.36 296.088 60.36C278.968 60.36 268.728 46.76 268.728 30.44C268.728 14.12 278.968 0.52 296.088 0.52C308.968 0.599998 319.128 7.72 320.328 20.04ZM323.262 10.52V1.88H369.502V10.52H351.342V59H341.342V10.52H323.262ZM396.149 38.44V1.88H406.149V35.16C406.149 42.84 406.629 51.72 419.589 51.72C432.549 51.72 433.029 42.84 433.029 35.16V1.88H443.029V38.44C443.029 53.08 433.669 60.36 419.589 60.36C405.509 60.36 396.149 53.08 396.149 38.44ZM450.284 39.96H460.284C460.284 48.76 466.764 52.2 474.764 52.2C483.564 52.2 486.844 47.88 486.844 43.56C486.844 39.16 484.444 37.4 482.124 36.52C478.124 35 472.924 33.96 465.084 31.8C455.324 29.16 452.444 23.24 452.444 17.32C452.444 5.88 463.004 0.52 473.324 0.52C485.244 0.52 495.244 6.84 495.244 18.76H485.244C484.764 11.4 479.804 8.68 472.924 8.68C468.284 8.68 462.444 10.36 462.444 16.12C462.444 20.12 465.164 22.36 469.244 23.48C470.124 23.72 482.764 27 485.724 27.88C493.244 30.12 496.844 36.52 496.844 42.44C496.844 55.24 485.484 60.36 474.124 60.36C461.084 60.36 450.524 54.12 450.284 39.96Z" fill="#111111"/>
</svg>
