<svg width="504" height="75" viewBox="0 0 504 75" fill="none" xmlns="http://www.w3.org/2000/svg">
<g clip-path="url(#clip0_7170_15448)">
<path d="M55.6821 53.7661C55.6821 65.1728 46.5389 75 29.6331 75C14.3986 75 3.99596 67.3674 0.0117188 58.3722L9.56662 54.3931C12.0855 59.6262 18.9157 64.8473 29.3183 64.8473C38.1466 64.8473 45.0736 60.7717 45.0736 54.0796C45.0736 47.3875 38.5583 44.9759 26.0606 41.4188C11.2378 37.2347 1.57393 32.7371 1.99778 19.9799C2.42164 8.16318 12.0855 0 27.308 0C41.0651 0 49.7844 7.31913 53.26 16.4228L43.7051 19.6664C41.8159 14.6503 37.6137 10.0442 27.635 10.0442C16.9175 10.0442 12.7153 15.2773 12.7153 20.4019C12.7153 25.9486 17.8621 28.4566 29.6331 31.8087C44.5528 35.9928 55.6821 40.4904 55.6821 53.7781V53.7661Z" fill="#111111"/>
<path d="M137.608 0.735352V44.4572C137.608 64.2321 125.74 74.6863 109.767 74.6863C93.7937 74.6863 81.9258 64.2321 81.9258 44.4572V0.735352H92.0135V44.1437C92.0135 58.999 99.4734 64.7506 109.767 64.7506C120.061 64.7506 127.629 58.999 127.629 44.1437V0.735352H137.608Z" fill="#111111"/>
<path d="M218.174 51.7763C218.174 64.8471 208.402 73.9508 194.426 73.9508H166.488V0.735352H194.015C206.936 0.735352 213.875 9.83905 213.875 20.5103C213.875 26.0569 210.824 30.868 206.621 34.1116C213.56 37.1501 218.174 43.1067 218.174 51.7884V51.7763ZM194.015 10.671H176.467V30.5424H192.44C199.694 30.5424 203.473 25.9363 203.473 20.4982C203.473 15.0601 200.53 10.671 194.015 10.671ZM207.881 51.7763C207.881 44.5537 203.049 39.9596 194.438 39.9596H176.479V63.9066H194.438C202.952 63.9066 207.881 59.0955 207.881 51.7763Z" fill="#111111"/>
<path d="M288.668 63.9066V73.9508H244.441V0.735352H254.529V63.9066H288.668Z" fill="#111111"/>
<path d="M324.381 0.735352V73.9508H314.402V0.735352H324.381Z" fill="#111111"/>
<path d="M425.856 0.735352V73.9508H415.877V19.8712L393.086 56.6839H386.571L363.78 19.8712V73.9508H353.801V0.735352H363.465L389.828 43.7217L416.192 0.735352H425.856Z" fill="#111111"/>
<path d="M503.999 63.9066V73.9508H455.256V0.735352H503.478V10.671H465.235V32.4235H500.221V42.1542H465.235V63.9066H503.999Z" fill="#111111"/>
</g>
<defs>
<clipPath id="clip0_7170_15448">
<rect width="504" height="75" fill="white"/>
</clipPath>
</defs>
</svg>
